<svg height="512pt" viewBox="0 0 512 512" width="512pt" xmlns="http://www.w3.org/2000/svg"><path d="m512 256c0 141.386719-114.613281 256-256 256s-256-114.613281-256-256 114.613281-256 256-256 256 114.613281 256 256zm0 0" fill="#ffe955"/><path d="m512 256c0 141.378906-114.621094 256-256 256s-256-114.621094-256-256c0-46.21875 12.25-89.570312 33.679688-127 44.121093 77.070312 127.160156 129 222.320312 129s178.210938-51.929688 222.320312-129c21.429688 37.429688 33.679688 80.78125 33.679688 127zm0 0" fill="#ffd112"/><path d="m481.261719 377.699219v.011719c-43.292969 79.96875-127.941407 134.289062-225.261719 134.289062s-181.96875-54.320312-225.261719-134.289062v-.011719zm0 0" fill="#ff9f00"/><g fill="#fff"><path d="m119.40625 75.839844h1.523438c6.753906 0 12.226562-5.476563 12.226562-12.230469v-1.523437h8.714844v1.523437c0 6.753906 5.476562 12.230469 12.226562 12.230469h1.527344v8.714844h-1.527344c-6.75 0-12.226562 5.472656-12.226562 12.226562v1.523438h-8.714844v-1.523438c0-6.753906-5.472656-12.226562-12.226562-12.226562h-1.523438zm0 0"/><path d="m388.585938 75.839844h-1.523438c-6.753906 0-12.226562-5.476563-12.226562-12.230469v-1.523437h-8.71875v1.523437c0 6.753906-5.472657 12.230469-12.226563 12.230469h-1.523437v8.714844h1.523437c6.753906 0 12.226563 5.472656 12.226563 12.226562v1.523438h8.71875v-1.523438c0-6.753906 5.472656-12.226562 12.226562-12.226562h1.523438zm0 0"/><path d="m41.21875 187.15625h1.523438c6.753906 0 12.230468-5.472656 12.230468-12.226562v-1.523438h8.714844v1.523438c0 6.753906 5.472656 12.226562 12.226562 12.226562h1.523438v8.714844h-1.523438c-6.753906 0-12.226562 5.476562-12.226562 12.226562v1.527344h-8.714844v-1.527344c0-6.75-5.476562-12.226562-12.230468-12.226562h-1.523438zm0 0"/><path d="m433.886719 187.15625h1.523437c6.753906 0 12.226563-5.472656 12.226563-12.226562v-1.523438h8.714843v1.523438c0 6.753906 5.476563 12.226562 12.226563 12.226562h1.527344v8.714844h-1.527344c-6.75 0-12.226563 5.476562-12.226563 12.226562v1.527344h-8.714843v-1.527344c0-6.75-5.472657-12.226562-12.226563-12.226562h-1.523437zm0 0"/><path d="m237.890625 114.171875h1.523437c6.753907 0 12.226563-5.476563 12.226563-12.226563v-1.523437h8.71875v1.523437c0 6.75 5.472656 12.226563 12.226563 12.226563h1.523437v8.714844h-1.523437c-6.753907 0-12.226563 5.472656-12.226563 12.226562v1.527344h-8.71875v-1.527344c0-6.753906-5.472656-12.226562-12.226563-12.226562h-1.523437zm0 0"/><path d="m247.929688 268.160156v243.710938c-3.238282-.101563-6.480469-.261719-9.691407-.480469-3.699219-.25-7.378906-.582031-11.027343-.992187v-218.539063c0-.007813 0-.007813 0-.007813v-23.691406zm0 0"/></g><path d="m248.601562 268.160156v243.730469c-.222656 0-.441406-.011719-.671874-.019531-3.238282-.101563-6.480469-.261719-9.691407-.480469v-243.230469zm0 0" fill="#d0f6ff"/><path d="m388.816406 228.242188c0 22.675781-8.652344 45.347656-25.949218 62.648437l-96.183594 96.179687c-8.039063 8.039063-18.578125 12.0625-29.113282 12.0625-4.96875 0-9.933593-.890624-14.640624-2.683593-5.277344-2-10.230469-5.128907-14.476563-9.378907l-96.179687-96.179687c-17.300782-17.300781-25.949219-39.972656-25.949219-62.648437 0-22.675782 8.648437-45.347657 25.949219-62.648438 17.296874-17.304688 39.972656-25.953125 62.644531-25.953125 22.675781 0 45.351562 8.648437 62.652343 25.953125 34.601563-34.605469 90.695313-34.605469 125.292969 0h.003907c14.464843 14.46875 22.882812 32.691406 25.257812 51.53125.460938 3.6875.691406 7.402344.691406 11.117188zm0 0" fill="#ff3445"/><path d="m388.816406 228.242188c0 22.675781-8.652344 45.347656-25.949218 62.648437l-96.183594 96.179687c-8.039063 8.039063-18.578125 12.0625-29.113282 12.0625-4.96875 0-9.933593-.890624-14.640624-2.683593-10.855469-29.621094-11.601563-63.117188.289062-94.996094 3.761719-10.105469 8.589844-19.492187 14.308594-28.109375 15.183594-22.867188 36.65625-40.195312 61.140625-50.464844 16.625-6.984375 34.652343-10.707031 53.035156-10.707031 12.085937 0 24.316406 1.605469 36.417969 4.953125.464844 3.6875.695312 7.402344.695312 11.117188zm0 0" fill="#dd1265"/><path d="m388.816406 228.242188c0 22.675781-8.652344 45.347656-25.949218 62.648437l-96.183594 96.179687c-8.039063 8.039063-18.578125 12.0625-29.113282 12.0625v-233.539062c34.601563-34.605469 90.695313-34.605469 125.292969 0h.003907c14.464843 14.46875 22.882812 32.691406 25.25 51.53125h.007812c.007812.070312.019531.148438.023438.222656.046874.386719.09375.769532.136718 1.160156.011719.0625.015625.125.019532.179688.078124.707031.144531 1.410156.203124 2.121094.003907.035156.003907.070312.011719.105468.019531.25.039063.503907.054688.757813.089843 1.15625.152343 2.3125.1875 3.464844.015625.292969.019531.582031.023437.871093.011719.316407.019532.632813.023438.949219.003906.429688.007812.855469.007812 1.285157zm0 0" fill="#dd1265"/><path d="m388.816406 228.242188c0 22.675781-8.652344 45.347656-25.949218 62.648437l-96.183594 96.179687c-8.039063 8.039063-18.578125 12.0625-29.113282 12.0625v-125.851562c15.183594-22.835938 36.636719-40.144531 61.101563-50.402344 16.625-6.984375 34.652344-10.707031 53.03125-10.707031 12.085937 0 24.3125 1.605469 36.414063 4.953125h.007812c.007812.070312.019531.148438.023438.222656.046874.386719.09375.769532.136718 1.160156.011719.0625.015625.125.019532.179688.078124.707031.144531 1.410156.203124 2.121094.003907.035156.003907.070312.011719.105468.019531.25.039063.503907.054688.757813.089843 1.15625.152343 2.3125.1875 3.464844.015625.292969.019531.582031.023437.871093.011719.316407.019532.632813.023438.949219.003906.429688.007812.855469.007812 1.285157zm0 0" fill="#ba0d5c"/><path d="m351.101562 212.179688v-.007813c-2.480468-7.941406-6.871093-15.402344-13.152343-21.671875-10.078125-10.078125-23.480469-15.628906-37.730469-15.628906-14.257812 0-27.660156 5.550781-37.738281 15.628906l-24.910157 24.910156-24.910156-24.910156c-10.082031-10.078125-23.480468-15.628906-37.738281-15.628906-14.25 0-27.660156 5.550781-37.742187 15.628906-20.808594 20.808594-20.808594 54.671875 0 75.480469l96.179687 96.179687c1.441406 1.441406 3.082031 1.738282 4.210937 1.738282.210938 0 .429688-.007813.667969-.039063 1.050781-.109375 2.351563-.519531 3.53125-1.699219l96.179688-96.179687c5.8125-5.808594 10-12.628907 12.5625-19.910157 3.859375-10.921874 4.046875-22.859374.589843-33.890624zm0 0" fill="#fff"/><path d="m337.953125 265.976562-96.179687 96.183594c-1.4375 1.441406-3.082032 1.742188-4.207032 1.742188-1.121094 0-2.765625-.300782-4.207031-1.742188l-18.691406-18.691406c.605469-14.007812 3.382812-28.160156 8.550781-42.015625 3.757812-10.105469 8.589844-19.492187 14.308594-28.109375 15.183594-22.867188 36.65625-40.195312 61.140625-50.464844 16.441406-6.90625 34.261719-10.625 52.433593-10.703125 5.769532 18.371094 1.382813 39.269531-13.148437 53.800781zm0 0" fill="#d0f6ff"/><path d="m337.953125 265.976562-96.179687 96.183594c-1.4375 1.441406-3.082032 1.742188-4.207032 1.742188v-148.488282l24.910156-24.914062c10.082032-10.074219 23.484376-15.628906 37.742188-15.628906 14.25 0 27.652344 5.554687 37.734375 15.628906 6.273437 6.273438 10.664063 13.738281 13.148437 21.675781 5.769532 18.371094 1.382813 39.269531-13.148437 53.800781zm0 0" fill="#d0f6ff"/><path d="m337.953125 265.976562-96.179687 96.183594c-1.4375 1.441406-3.082032 1.742188-4.207032 1.742188v-90.621094c15.1875-22.835938 36.640625-40.144531 61.101563-50.402344 16.445312-6.90625 34.261719-10.625 52.433593-10.703125 5.769532 18.371094 1.382813 39.269531-13.148437 53.800781zm0 0" fill="#8fc9f7"/><path d="m312.53125 217.921875-.011719-.011719c-.289062-.351562-.597656-.691406-.941406-1.03125-3.078125-3.078125-7.007813-4.707031-11.359375-4.707031-4.359375 0-8.289062 1.628906-11.359375 4.707031l-24.917969 24.910156-26.371094 26.371094-51.289062-51.28125c-3.082031-3.078125-7.011719-4.707031-11.359375-4.707031-4.351563 0-8.292969 1.628906-11.363281 4.707031-4.078125 4.070313-4.6875 8.859375-4.6875 11.359375 0 2.492188.609375 7.292969 4.6875 11.363281l60.261718 60.269532 3.390626 3.390625 10.359374 10.347656 74.007813-74.007813c4.070313-4.070312 4.683594-8.871093 4.683594-11.363281 0-2.289062-.511719-6.5-3.730469-10.316406zm0 0" fill="#ff3445"/><path d="m316.261719 228.242188c0 2.492187-.609375 7.289062-4.683594 11.359374l-74.011719 74.011719-13.742187-13.742187c3.664062-9.507813 8.285156-18.359375 13.703125-26.527344 15.183594-22.867188 36.65625-40.195312 61.140625-50.464844 4.523437-1.894531 9.148437-3.558594 13.859375-4.960937 3.222656 3.820312 3.734375 8.035156 3.734375 10.324219zm0 0" fill="#dd1265"/><path d="m316.261719 228.242188c0 2.492187-.609375 7.289062-4.683594 11.359374l-74.011719 74.011719v-45.449219l26.375-26.375 24.914063-24.910156c3.078125-3.082031 7.003906-4.707031 11.363281-4.707031 4.351562 0 8.285156 1.625 11.359375 4.707031.34375.34375.660156.691406.949219 1.035156 3.222656 3.824219 3.734375 8.039063 3.734375 10.328126zm0 0" fill="#dd1265"/><path d="m316.261719 228.242188c0 2.492187-.609375 7.289062-4.683594 11.359374l-74.011719 74.011719v-40.332031c15.1875-22.835938 36.640625-40.144531 61.101563-50.402344 4.523437-1.894531 9.148437-3.558594 13.859375-4.960937 3.222656 3.820312 3.734375 8.035156 3.734375 10.324219zm0 0" fill="#ba0d5c"/><path d="m363.921875 268.160156v220.039063c-3.140625 1.472656-6.3125 2.871093-9.523437 4.199219-3.6875 1.542968-7.417969 2.992187-11.199219 4.351562v-228.589844zm0 0" fill="#fff"/><path d="m364.609375 268.160156v219.71875c-.230469.109375-.460937.222656-.6875.320313-3.140625 1.472656-6.3125 2.871093-9.523437 4.199219v-224.238282zm0 0" fill="#d0f6ff"/><path d="m446.921875 309.40625c-7.730469-18.441406-20.777344-34.605469-37.996094-46.042969-6.484375-4.308593-13.554687-7.9375-21.160156-10.773437-11.890625-4.433594-24.074219-6.53125-36.058594-6.53125-13.84375 0-27.417969 2.804687-39.933593 8.0625-18.433594 7.734375-34.601563 20.78125-46.035157 38-4.308593 6.484375-7.945312 13.554687-10.777343 21.164062-9.550782 25.613282-8.273438 52.621094 1.535156 75.988282 7.730468 18.433593 20.777344 34.601562 37.996094 46.042968 6.484374 4.300782 13.554687 7.9375 21.160156 10.769532 11.882812 4.429687 24.074218 6.535156 36.054687 6.527343 13.839844 0 27.414063-2.804687 39.9375-8.0625 18.433594-7.734375 34.601563-20.78125 46.035157-37.996093 4.308593-6.480469 7.9375-13.558594 10.777343-21.160157 9.546875-25.621093 8.273438-52.628906-1.535156-75.988281zm0 0" fill="#ff3445"/><path d="m448.457031 385.394531c-2.835937 7.601563-6.46875 14.675781-10.777343 21.15625-11.433594 17.21875-27.601563 30.265625-46.035157 38-12.523437 5.257813-26.097656 8.0625-39.9375 8.0625v-206.554687c11.984375 0 24.167969 2.097656 36.058594 6.53125 7.605469 2.835937 14.675781 6.464844 21.160156 10.773437 17.21875 11.4375 30.265625 27.601563 37.996094 46.042969 9.808594 23.359375 11.082031 50.367188 1.535156 75.988281zm0 0" fill="#dd1265"/><path d="m446.925781 309.402344c-36.632812-4.6875-73.050781 10.761718-95.214843 39.933594.625-9.855469 2.691406-19.789063 6.316406-29.519532 9.550781-25.625 28.1875-45.207031 50.898437-56.457031 17.21875 11.441406 30.261719 27.609375 38 46.042969zm0 0" fill="#d0f6ff"/><path d="m437.683594 406.554688c-11.4375 17.214843-27.605469 30.261718-46.039063 37.996093 4.6875-36.628906-10.765625-73.050781-39.933593-95.214843 9.855468.625 19.789062 2.691406 29.519531 6.316406 25.621093 9.550781 45.203125 28.191406 56.453125 50.902344zm0 0" fill="#e4ebf8"/><path d="m256.492188 389.269531c7.738281 18.4375 20.78125 34.605469 38 46.042969 22.710937-11.25 41.347656-30.832031 50.898437-56.457031 3.625-9.730469 5.691406-19.664063 6.320313-29.519531-22.164063 29.171874-58.585938 44.625-95.21875 39.933593zm0 0" fill="#fff"/><path d="m351.710938 349.335938c-9.855469-.625-19.789063-2.691407-29.519532-6.316407-25.625-9.550781-45.210937-28.1875-56.457031-50.898437 11.4375-17.21875 27.605469-30.265625 46.039063-38-4.6875 36.632812 10.765624 73.050781 39.9375 95.214844zm0 0" fill="#fff"/></svg>