<?xml version="1.0" standalone="no"?>
<!DOCTYPE svg PUBLIC "-//W3C//DTD SVG 20010904//EN"
 "http://www.w3.org/TR/2001/REC-SVG-20010904/DTD/svg10.dtd">
<svg version="1.0" xmlns="http://www.w3.org/2000/svg"
 width="1050.809700pt" height="1988.238591pt" viewBox="0 0 1050.809700 1988.238591"
 preserveAspectRatio="xMidYMid meet">
<metadata>
Created by potrace 1.12, written by Peter Selinger 2001-2015
</metadata>
<g transform="translate(-4.077114,1992.856277) scale(0.100000,-0.100000)"
fill="#000000" stroke="none">
<path d="M456 19915 c-192 -53 -350 -213 -401 -405 -19 -71 -19 -219 0 -290 8
-30 28 -84 46 -120 29 -61 322 -355 4555 -4590 l4524 -4525 -4513 -4513
c-3227 -3227 -4524 -4530 -4547 -4569 -53 -87 -73 -156 -78 -269 -9 -213 80
-391 250 -502 109 -71 163 -86 313 -86 144 0 201 14 299 76 66 40 9479 9447
9543 9537 66 91 94 174 100 296 6 121 -6 187 -53 286 -34 73 -105 144 -4797
4835 -4458 4458 -4766 4764 -4827 4793 -36 18 -90 38 -120 46 -68 18 -228 18
-294 0z"/>
</g>
</svg>
